# xmcd CD database file
#
# Track frame offsets:
#	150
#	5733
#	19979
#	34130
#	52043
#	66779
#	81894
#	100248
#	117071
#	133642
#	151241
#	167832
#	181211
#	191152
#	208072
#	225427
#	238374
#	250074
#	263271
#	276256
#
# Disc length: 3871 seconds
#
# Revision: 0
# Processed by: cddbd v1.5.2PL0 Copyright (c) Steve Scherf et al.
# Submitted via: Feurio! 1.67 - http://www.feurio.com
#
DISCID=140f1d14
DTITLE=Mukketier Bande - Musik auf dem Bauernhof
DYEAR=1900
DGENRE=Children's Music
TTITLE0=Der Hof
TTITLE1=Der Hahn
TTITLE2=Das Schaf Karly
TTITLE3=Der Esel
TTITLE4=Die Ziege
TTITLE5=Atze, die Katze
TTITLE6=Der Trommelhund
TTITLE7=Gerd, das Pferd
TTITLE8=Die KuhHella
TTITLE9=Heiner, das Schwein
TTITLE10=Die Hühner
TTITLE11=Der Bauer
TTITLE12=Die Idee
TTITLE13=Die Party
TTITLE14=Ein Hörtest
TTITLE15=Karaoke Hahn
TTITLE16=Karaoke Atze
TTITLE17=Karaoke Ziege
TTITLE18=Karaoke Kuh
TTITLE19=Karaoke kuh
EXTD=
EXTT0=
EXTT1=
EXTT2=
EXTT3=
EXTT4=
EXTT5=
EXTT6=
EXTT7=
EXTT8=
EXTT9=
EXTT10=
EXTT11=
EXTT12=
EXTT13=
EXTT14=
EXTT15=
EXTT16=
EXTT17=
EXTT18=
EXTT19=
PLAYORDER=
